<?xml version="1.0" encoding="utf-8"?>
<!-- Generator: Adobe Illustrator 23.1.1, SVG Export Plug-In . SVG Version: 6.00 Build 0)  -->
<svg version="1.1" id="Capa_1" xmlns="http://www.w3.org/2000/svg" xmlns:xlink="http://www.w3.org/1999/xlink" width="425" height="289"  x="0px" y="0px"
	 viewBox="0 0 2858.27 556.31" style="enable-background:new 0 0 2858.27 556.31;" xml:space="preserve">
<path d="M2272.76,311.65l0.02-62.22c0-0.63,0.3-0.94,0.89-0.94l44.32,0.02c0.59,0,0.89,0.31,0.89,0.94l0,4.55
	c0,0.63-0.3,0.94-0.89,0.94l-36.99-0.02l-0.01,21.93l30.55,0.01c0.63,0,0.94,0.32,0.94,0.94l0,4.56c0,0.63-0.31,0.94-0.94,0.94
	l-30.56-0.01l-0.01,22.87l36.99,0.02c0.59,0,0.89,0.3,0.89,0.89l0,4.6c0,0.59-0.3,0.89-0.89,0.89l-44.32-0.02
	C2273.06,312.55,2272.76,312.25,2272.76,311.65"/>
<path d="M2325.37,249.45c-0.09-0.18-0.12-0.33-0.09-0.45c0-0.32,0.28-0.49,0.84-0.49l6.57,0c0.59,0,1.05,0.31,1.38,0.94l21.02,52.58
	l21.06-52.57c0.3-0.6,0.76-0.91,1.38-0.94l6.57,0c0.83,0,1.08,0.31,0.76,0.94l-24.28,60.38c-0.74,1.82-2.11,2.72-4.11,2.72l-2.77,0
	c-2.03,0-3.39-0.91-4.11-2.73L2325.37,249.45z"/>
<path d="M2396.81,311.71l0.03-62.22c0-0.63,0.3-0.94,0.89-0.94l44.31,0.02c0.6,0,0.89,0.31,0.89,0.94v4.55
	c0,0.63-0.3,0.94-0.89,0.94l-36.99-0.02l-0.01,21.93l30.56,0.01c0.63,0,0.94,0.32,0.94,0.94v4.56c0,0.62-0.31,0.94-0.94,0.94
	l-30.55-0.02l-0.01,22.87l36.99,0.02c0.59,0,0.89,0.3,0.89,0.89v4.6c0,0.59-0.3,0.89-0.89,0.89l-44.32-0.02
	C2397.11,312.6,2396.81,312.3,2396.81,311.71"/>
<path d="M2455.73,311.73l0.03-62.22c0-0.63,0.3-0.94,0.89-0.94h6.44c1.82,0,3.34,0.92,4.56,2.77l33.84,50.32l0.02-52.13
	c0-0.63,0.3-0.94,0.89-0.94h6.44c0.6,0,0.89,0.31,0.89,0.94l-0.03,62.22c0,0.59-0.29,0.89-0.89,0.89h-6.44
	c-1.81,0-3.33-0.91-4.55-2.73l-33.84-50.36l-0.02,52.18c0,0.59-0.29,0.89-0.89,0.89h-6.44
	C2456.03,312.62,2455.73,312.32,2455.73,311.73"/>
<path d="M2520.71,254.09v-4.55c0-0.6,0.3-0.91,0.9-0.94l52.17,0.02c0.6,0,0.89,0.31,0.89,0.94v4.55c0,0.6-0.29,0.91-0.89,0.94
	l-22.42-0.01l-0.03,56.73c0,0.59-0.3,0.89-0.89,0.89l-6.44,0c-0.59,0-0.89-0.3-0.89-0.89l0.02-56.73l-21.53-0.01
	C2521.01,254.99,2520.71,254.68,2520.71,254.09"/>
<path d="M2579.34,296.1c0-0.54,0.31-0.8,0.94-0.8h5.76c0.54,0,0.91,0.3,1.12,0.89c2.56,7.63,9.07,11.44,19.56,11.44
	c5.48,0,9.67-0.97,12.58-2.92c2.9-1.95,4.35-4.37,4.35-7.26c0-2.89-0.91-5.22-2.74-6.99c-1.83-1.77-4.7-3.21-8.6-4.31l-16.03-4.56
	c-10.36-2.99-15.54-8.63-15.54-16.94c0-5.13,2.19-9.3,6.56-12.53c4.36-3.23,10.21-4.84,17.53-4.84c7.33,0,13.24,1.58,17.75,4.72
	c4.51,3.14,7.34,7.45,8.5,12.93c0.12,0.74-0.19,1.12-0.93,1.12h-5.77c-0.53,0-0.91-0.32-1.11-0.94
	c-2.56-7.63-8.65-11.44-18.27-11.45c-5.06,0-9,0.98-11.82,2.92c-2.81,1.95-4.23,4.39-4.23,7.32c0,2.93,0.91,5.25,2.75,6.95
	c1.83,1.7,4.73,3.13,8.68,4.29l16.04,4.61c10.3,2.92,15.45,8.56,15.45,16.93c0,5.18-2.25,9.37-6.73,12.57
	c-4.48,3.2-10.63,4.8-18.43,4.79c-7.8,0-14.02-1.56-18.67-4.7c-2.32-1.54-4.35-3.52-6.1-5.92
	C2580.2,301.05,2579.34,298.6,2579.34,296.1"/>
<path d="M2272.72,421.43l0.02-62.23c0-0.6,0.3-0.91,0.89-0.94l21.04,0.01c9.5,0,17.14,2.86,22.91,8.56
	c5.78,5.7,8.66,13.53,8.65,23.48c0,9.95-2.89,17.77-8.65,23.47c-5.77,5.7-13.42,8.55-22.95,8.54l-21.04-0.01
	C2273.02,422.33,2272.72,422.03,2272.72,421.43 M2280.94,415.94l13.72,0c6.94,0,12.57-2.17,16.89-6.54
	c4.32-4.36,6.48-10.71,6.49-19.07c0-8.35-2.15-14.71-6.45-19.08c-4.3-4.37-9.94-6.55-16.91-6.56l-13.72,0L2280.94,415.94z"/>
<path d="M2339.94,421.46l0.03-62.22c0-0.63,0.3-0.94,0.89-0.94l44.31,0.02c0.6,0,0.89,0.31,0.89,0.94v4.55
	c0,0.63-0.3,0.94-0.89,0.94l-36.99-0.02l-0.01,21.93l30.56,0.02c0.63,0,0.94,0.32,0.94,0.94v4.56c0,0.63-0.31,0.94-0.94,0.94
	l-30.55-0.02l-0.01,22.87l36.99,0.02c0.59,0,0.89,0.3,0.89,0.89v4.6c0,0.59-0.3,0.89-0.89,0.89l-44.32-0.02
	C2340.24,422.35,2339.94,422.05,2339.94,421.46"/>
<path d="M2394.36,405.81c0-0.54,0.31-0.8,0.94-0.8h5.76c0.54,0,0.91,0.3,1.12,0.89c2.55,7.63,9.07,11.44,19.56,11.44
	c5.48,0,9.67-0.97,12.58-2.92c2.9-1.95,4.35-4.37,4.35-7.26c0-2.89-0.91-5.22-2.74-6.99c-1.83-1.77-4.7-3.21-8.6-4.31l-16.04-4.56
	c-10.36-2.99-15.54-8.63-15.54-16.94c0-5.13,2.19-9.3,6.55-12.53c4.36-3.23,10.21-4.84,17.54-4.84c7.33,0,13.24,1.57,17.75,4.72
	c4.51,3.14,7.34,7.45,8.5,12.93c0.12,0.74-0.19,1.12-0.93,1.12h-5.77c-0.53,0-0.91-0.32-1.11-0.94
	c-2.56-7.63-8.65-11.44-18.27-11.45c-5.06,0-9,0.98-11.82,2.92c-2.81,1.95-4.23,4.39-4.23,7.32c0,2.93,0.91,5.25,2.75,6.95
	c1.83,1.7,4.73,3.13,8.68,4.29l16.04,4.61c10.3,2.92,15.45,8.56,15.45,16.93c0,5.18-2.25,9.37-6.73,12.57
	c-4.48,3.2-10.62,4.8-18.42,4.79c-7.8,0-14.02-1.56-18.67-4.7c-2.32-1.54-4.35-3.52-6.1-5.92
	C2395.22,410.76,2394.36,408.3,2394.36,405.81"/>
<path d="M2460.6,421.51l0.03-62.23c0-0.62,0.3-0.94,0.89-0.94l6.44,0c0.6,0,0.89,0.31,0.89,0.94l-0.03,62.23
	c0,0.59-0.29,0.89-0.89,0.89h-6.44C2460.9,422.41,2460.6,422.11,2460.6,421.51"/>
<path d="M2513.2,357.03c7.5,0,13.59,1.63,18.26,4.86c4.67,3.23,7.59,7.79,8.75,13.69c0.12,0.74-0.19,1.11-0.94,1.11l-5.76,0
	c-0.54,0-0.9-0.3-1.07-0.89c-2.56-8.25-8.98-12.38-19.25-12.38c-6.14,0-11.25,2.26-15.35,6.81c-4.1,4.54-6.15,11.24-6.15,20.12
	c0,8.87,2.02,15.6,6.05,20.18c4.03,4.57,9,6.85,14.91,6.86c5.91,0,10.76-1.89,14.54-5.71c3.78-3.81,5.68-8.76,5.68-14.83v-0.93
	l-18.67-0.01c-0.6,0-0.89-0.3-0.89-0.9l0-4.6c0-0.6,0.29-0.89,0.89-0.89l26,0.01c0.6,0,0.89,0.29,0.89,0.89l-0.01,31.14
	c0,0.59-0.29,0.89-0.89,0.89l-5.04,0c-0.54,0-0.84-0.3-0.9-0.89l-0.94-8.26c-0.62,1.04-1.59,2.21-2.9,3.52
	c-1.31,1.31-2.68,2.42-4.11,3.35c-1.43,0.92-3.37,1.76-5.81,2.52c-2.45,0.76-5.04,1.13-7.78,1.13c-8.52,0-15.52-2.97-21.01-8.89
	c-5.49-5.93-8.24-14.11-8.23-24.53c0-10.43,2.78-18.59,8.34-24.5C2497.38,359.98,2504.5,357.02,2513.2,357.03"/>
<path d="M2557.57,421.55l0.03-62.22c0-0.63,0.3-0.94,0.89-0.94h6.44c1.82,0,3.34,0.92,4.56,2.77l33.84,50.32l0.02-52.13
	c0-0.63,0.3-0.94,0.89-0.94h6.44c0.6,0,0.89,0.31,0.89,0.94l-0.03,62.23c0,0.59-0.29,0.89-0.89,0.89h-6.44
	c-1.81,0-3.33-0.91-4.55-2.73l-33.84-50.36l-0.02,52.18c0,0.59-0.29,0.89-0.89,0.89h-6.44
	C2557.87,422.45,2557.57,422.15,2557.57,421.55"/>
<path d="M2629.85,421.58l0.02-62.23c0-0.62,0.3-0.94,0.89-0.94l44.32,0.02c0.59,0,0.89,0.31,0.89,0.94l0,4.55
	c0,0.63-0.3,0.94-0.89,0.94l-36.99-0.02l-0.01,21.93l30.55,0.01c0.63,0,0.94,0.32,0.94,0.94l0,4.56c0,0.63-0.31,0.94-0.94,0.94
	l-30.56-0.01l-0.01,22.87l36.99,0.02c0.59,0,0.89,0.3,0.89,0.89l0,4.6c0,0.59-0.3,0.89-0.89,0.89l-44.32-0.02
	C2630.15,422.48,2629.85,422.18,2629.85,421.58"/>
<path d="M2688.77,421.61l0.03-62.23c0-0.6,0.3-0.91,0.89-0.94l25.64,0.01c7.5,0,13.34,1.73,17.51,5.19
	c4.16,3.46,6.25,8.29,6.25,14.52c0,4.47-1.61,8.32-4.81,11.56c-3.2,3.25-7.69,5.33-13.47,6.26c1.7,0.42,3.23,1.16,4.6,2.23
	c1.37,1.08,2.36,2.01,2.97,2.79c0.61,0.79,1.44,2.02,2.48,3.69l10.98,16.71c0.15,0.23,0.23,0.48,0.23,0.73s-0.33,0.38-0.98,0.38
	l-7.51,0c-0.48,0-0.92-0.3-1.34-0.89l-10.99-16.93c-2.91-4.59-7.19-6.88-12.81-6.89l-11.44,0l-0.01,23.81c0,0.59-0.3,0.89-0.89,0.89
	h-6.44C2689.07,422.5,2688.77,422.2,2688.77,421.61 M2697,391.41l18.32,0.01c4.7,0,8.47-1.15,11.3-3.44
	c2.83-2.29,4.25-5.57,4.25-9.85c0-4.27-1.42-7.55-4.26-9.83c-2.84-2.28-6.6-3.42-11.27-3.43l-18.32-0.01L2697,391.41z"/>
<path d="M412.74,280.69c0,0.42-0.11,0.94-0.31,1.57l-163.88-0.07l-0.01,23.5c-0.02,32.17,3,55.88,9.06,71.12
	c9.39,23.62,27.14,35.42,53.25,35.43c11.7,0,23.29-1.97,34.78-5.94c14.83-5.22,22.25-12.41,22.26-21.61
	c0-6.26-4.43-12.79-13.31-19.59c-8.88-6.79-13.31-14.47-13.31-23.04c0-8.15,2.83-14.83,8.47-20.05c5.22-4.59,11.38-6.89,18.49-6.88
	c8.15,0,14.93,2.83,20.36,8.47c6.06,6.27,9.08,15.04,9.07,26.32c-0.01,19.64-9.1,35.72-27.28,48.24
	c-16.71,11.49-36.87,17.22-60.48,17.21c-31.13-0.01-57.44-10.15-78.95-30.42c-25.26-23.41-37.89-56.1-37.87-98.08
	c0.02-35.1,11.35-65.27,34.03-90.54c22.68-25.26,49.06-37.89,79.13-37.88c34.88,0.02,61.51,11,79.88,32.94
	C403.89,212.5,412.76,242.26,412.74,280.69 M360.73,279.11c0-12.95-0.72-28.72-2.18-47.32c-1.87-24.85-5.31-41.67-10.31-50.45
	c-7.31-13.16-21.3-19.75-41.98-19.76c-20.88-0.01-35.51,6.57-43.87,19.72c-6.07,9.61-10.04,26.43-11.93,50.44
	c-0.84,10.66-1.48,26.43-1.9,47.31L360.73,279.11z"/>
<polygon points="1008.12,165.01 962.69,164.99 862.94,424.39 859.81,424.39 760.59,164.91 712.03,164.89 712.03,161.76 
	861.17,161.82 861.17,164.95 812.6,164.93 885.84,355.78 959.24,164.99 913.81,164.97 913.81,161.84 1008.12,161.88 "/>
<path d="M1587.68,412.78l-95.57-0.04l0.08-187.37c0.01-14.2-3.86-25.27-11.58-33.22c-7.1-7.1-16.08-10.66-26.94-10.67
	c-19.85-0.01-34.89,8.87-45.13,26.61c-6.91,12.33-10.36,25.07-10.36,38.22l-0.07,163.25l39.16,0.02v3.13l-134.73-0.06v-3.13
	l45.43,0.02l0.1-244.4l-45.43-0.02V162l95.57,0.04l-0.03,64.86c4.19-20.47,15.26-37.28,33.24-50.44
	c16.3-11.69,33.32-17.53,51.08-17.52c16.92,0,30.81,4.92,41.67,14.74c12.11,11.08,18.16,26.33,18.15,45.75l-0.08,190.19l45.44,0.02
	V412.78z"/>
<path d="M2078.68,361.29c-0.01,17.34-6.39,31.02-19.13,41.04c-11.7,9.19-26.22,13.77-43.55,13.77c-19.22-0.01-35.72-5.55-49.5-16.63
	c-15.46-12.33-23.18-28.73-23.17-49.2l0.05-128.47l-45.44-0.02l0-3.13l16.61,0.01c22.56,0.01,40.89-7.35,54.99-22.07
	c14.11-14.72,21.17-33.57,21.18-56.54h2.82l-0.03,78.65l76.76,0.03v3.13l-76.77-0.03l-0.07,166.07c0,8.15,2.61,14.37,7.83,18.64
	c5.22,4.29,11.48,6.43,18.79,6.43c7.1,0,13.32-1.98,18.65-5.94c5.33-3.96,7.99-9.29,7.99-15.98c0-5.43-2.39-9.09-7.2-10.97
	c-11.49-4.18-17.23-12.74-17.22-25.7c0-8.57,2.83-15.35,8.47-20.37c5.02-4.59,11.17-6.89,18.49-6.88c8.98,0,16.14,3.35,21.46,10.03
	C2076.02,343.85,2078.69,351.89,2078.68,361.29"/>
<path d="M2195.22,388.28c0,7.73-2.72,14.31-8.15,19.73c-5.43,5.43-12.02,8.14-19.74,8.14c-7.73,0-14.31-2.72-19.74-8.15
	c-5.43-5.43-8.14-12.01-8.14-19.74c0-7.73,2.72-14.3,8.16-19.73c5.43-5.43,12.01-8.14,19.74-8.14c7.72,0,14.3,2.72,19.73,8.16
	C2192.51,373.98,2195.23,380.56,2195.22,388.28"/>
</svg>
