<?xml version="1.0" encoding="utf-8"?>
<!-- Generator: Adobe Illustrator 23.1.1, SVG Export Plug-In . SVG Version: 6.00 Build 0)  -->
<svg version="1.1" id="Capa_1" xmlns="http://www.w3.org/2000/svg" xmlns:xlink="http://www.w3.org/1999/xlink" x="0px" y="0px"
	 viewBox="0 0 1500 1500" style="enable-background:new 0 0 1500 1500;" xml:space="preserve">
<g>
	<path d="M513.56,765.44c0,0.46-0.11,1.02-0.33,1.68l-176.01-0.07l-0.01,25.24c-0.02,34.55,3.22,60.02,9.73,76.4
		c10.08,25.36,29.14,38.04,57.19,38.05c12.56,0.01,25.01-2.12,37.35-6.38c15.93-5.6,23.9-13.33,23.91-23.21
		c0-6.73-4.77-13.74-14.29-21.04c-9.53-7.29-14.3-15.54-14.29-24.74c0-8.75,3.04-15.93,9.1-21.54c5.6-4.93,12.22-7.4,19.85-7.39
		c8.75,0.01,16.04,3.04,21.87,9.09c6.51,6.74,9.75,16.16,9.75,28.28c-0.01,21.09-9.78,38.36-29.3,51.81
		c-17.95,12.34-39.6,18.49-64.96,18.48c-33.44-0.02-61.7-10.91-84.79-32.68c-27.14-25.13-40.69-60.26-40.67-105.35
		c0.02-37.69,12.19-70.1,36.55-97.25c24.36-27.13,52.69-40.69,84.99-40.68c37.47,0.01,66.07,11.81,85.8,35.37
		C504.06,692.19,513.58,724.17,513.56,765.44 M457.7,763.74c0.01-13.9-0.77-30.85-2.34-50.82c-2-26.7-5.7-44.76-11.07-54.19
		c-7.86-14.13-22.88-21.21-45.09-21.22c-22.43-0.01-38.14,7.06-47.12,21.18c-6.52,10.32-10.78,28.38-12.81,54.18
		c-0.91,11.44-1.59,28.38-2.05,50.81L457.7,763.74z"/>
	<polyline points="765.74,634.58 652.16,919.64 648.79,919.64 542.23,640.94 490.06,640.92 490.06,637.55 650.25,637.62 
		650.25,640.98 598.09,640.96 676.75,845.95 762.04,634.58 	"/>
	<path d="M1023.49,903.67l-102.65-0.04l0.09-201.25c0.01-15.25-4.15-27.14-12.44-35.67c-7.63-7.63-17.27-11.45-28.93-11.45
		c-21.32-0.01-37.48,9.52-48.47,28.58c-7.41,13.24-11.12,26.93-11.12,41.05l-0.07,175.33l42.07,0.02l-0.01,3.36l-144.71-0.06v-3.36
		l48.79,0.02l0.11-262.5l-48.79-0.02l0.01-3.36L820,634.36l-0.03,69.66c4.5-21.98,16.39-40.04,35.69-54.16
		c17.51-12.56,35.79-18.83,54.86-18.82c18.17,0.01,33.09,5.29,44.75,15.84c13.01,11.9,19.51,28.28,19.5,49.14l-0.09,204.28
		l48.8,0.02V903.67z"/>
	<path d="M1205.92,848.22c-0.01,18.63-6.86,33.32-20.55,44.08c-12.57,9.86-28.16,14.79-46.78,14.79
		c-20.65-0.01-38.36-5.96-53.17-17.86c-16.6-13.24-24.89-30.86-24.89-52.84l0.06-137.98l-48.79-0.02v-3.36l17.84,0.01
		c24.23,0.01,43.92-7.89,59.06-23.7c15.16-15.81,22.74-36.05,22.75-60.73h3.03l-0.04,84.47l82.45,0.03v3.37l-82.45-0.04
		l-0.08,178.37c0,8.75,2.8,15.43,8.41,20.03c5.6,4.6,12.33,6.9,20.19,6.91c7.62,0.01,14.3-2.12,20.03-6.39
		c5.72-4.26,8.59-9.97,8.59-17.16c0.01-5.83-2.57-9.76-7.73-11.78c-12.34-4.49-18.5-13.69-18.5-27.61
		c0.01-9.2,3.04-16.48,9.09-21.87c5.39-4.93,12.01-7.4,19.86-7.39c9.64,0.01,17.33,3.59,23.05,10.77
		C1203.06,829.48,1205.92,838.12,1205.92,848.22"/>
	<path d="M1280.94,877.19c0,8.3-2.92,15.37-8.76,21.2c-5.84,5.83-12.91,8.74-21.2,8.74c-8.3,0-15.37-2.92-21.2-8.76
		c-5.84-5.83-8.74-12.9-8.74-21.2c0-8.3,2.91-15.36,8.76-21.19c5.83-5.83,12.9-8.75,21.2-8.74c8.3,0,15.36,2.92,21.19,8.76
		C1278.03,861.82,1280.95,868.89,1280.94,877.19"/>
	<path d="M1423.45,769.92c-11.05-0.01-20-8.97-19.99-20.01c0.11-256.31-152.34-486.52-388.38-586.46
		c-78.41-33.21-161.74-50.06-247.65-50.1c-74.97-0.03-148.37,12.85-218.17,38.28c-10.36,3.78-21.86-1.56-25.64-11.95
		c-3.78-10.38,1.57-21.86,11.95-25.64c74.2-27.04,152.21-40.73,231.89-40.7c91.3,0.04,179.86,17.96,263.23,53.27
		c250.87,106.23,412.9,350.9,412.78,623.31C1443.46,760.97,1434.5,769.92,1423.45,769.92"/>
	<path d="M110.86,769.37c-11.05-0.01-20-8.97-19.99-20.01c0.05-118.9,31.39-235.83,90.64-338.14c5.53-9.56,17.77-12.82,27.34-7.29
		c9.56,5.53,12.82,17.77,7.29,27.34c-55.73,96.24-85.21,206.24-85.26,318.11C130.87,760.43,121.91,769.38,110.86,769.37"/>
	<path d="M512.71,1382.14l22.89-62.79c0.23-0.63,0.65-0.83,1.25-0.61l44.72,16.3c0.59,0.22,0.78,0.64,0.55,1.27l-1.68,4.59
		c-0.23,0.63-0.64,0.84-1.24,0.62l-37.33-13.6l-8.06,22.12l30.84,11.24c0.63,0.23,0.83,0.66,0.6,1.29l-1.68,4.6
		c-0.23,0.62-0.66,0.83-1.29,0.6l-30.83-11.24l-8.41,23.08l37.31,13.6c0.61,0.22,0.79,0.63,0.58,1.24l-1.7,4.65
		c-0.22,0.59-0.62,0.79-1.23,0.56l-44.71-16.29C512.68,1383.15,512.49,1382.74,512.71,1382.14"/>
	<path d="M594.74,1340.33c-0.04-0.2-0.04-0.37,0.02-0.49c0.08-0.33,0.42-0.44,1.01-0.3l6.87,1.61c0.62,0.15,1.03,0.59,1.22,1.32
		l9.05,60.14l34.93-49.79c0.46-0.55,1.02-0.76,1.69-0.63l6.86,1.61c0.88,0.2,1.05,0.59,0.56,1.16l-40.22,57.18
		c-1.22,1.71-2.88,2.33-4.97,1.83l-2.89-0.68c-2.12-0.5-3.32-1.79-3.62-3.86L594.74,1340.33z"/>
	<path d="M668.16,1424.05l7.65-66.4c0.07-0.66,0.43-0.97,1.06-0.89l47.29,5.45c0.63,0.08,0.91,0.45,0.83,1.11l-0.56,4.86
		c-0.07,0.66-0.43,0.96-1.06,0.89l-39.46-4.55l-2.69,23.4l32.59,3.75c0.66,0.08,0.97,0.45,0.89,1.12l-0.57,4.86
		c-0.07,0.67-0.44,0.97-1.1,0.89l-32.62-3.76l-2.81,24.41l39.46,4.55c0.64,0.07,0.91,0.43,0.85,1.06l-0.57,4.91
		c-0.07,0.63-0.43,0.91-1.06,0.85l-47.28-5.45C668.36,1425.04,668.08,1424.68,668.16,1424.05"/>
	<path d="M745.43,1431.3l-0.6-66.83c-0.01-0.67,0.31-1.01,0.95-1.01l6.91-0.07c1.95-0.02,3.6,0.96,4.93,2.93l36.86,53.7l-0.51-56
		c-0.01-0.66,0.31-1.01,0.95-1.01l6.9-0.06c0.64-0.01,0.97,0.33,0.98,1l0.6,66.82c0.02,0.64-0.32,0.97-0.96,0.98l-6.91,0.06
		c-1.95,0.02-3.59-0.94-4.91-2.88l-36.86-53.75l0.51,56.04c0.01,0.64-0.31,0.97-0.96,0.97l-6.9,0.06
		C745.76,1432.26,745.43,1431.94,745.43,1431.3"/>
	<path d="M821.43,1367.52l-0.65-4.86c-0.08-0.62,0.2-1,0.82-1.12l55.54-7.45c0.64-0.09,1,0.2,1.09,0.88l0.65,4.84
		c0.08,0.63-0.18,1-0.82,1.12l-23.87,3.21l8.09,60.39c0.09,0.63-0.18,0.99-0.82,1.08l-6.85,0.92c-0.64,0.08-0.99-0.2-1.08-0.83
		l-8.1-60.39l-22.92,3.08C821.87,1368.44,821.51,1368.15,821.43,1367.52"/>
	<path d="M901.59,1401.25c-0.14-0.56,0.11-0.91,0.76-1.08l6.01-1.51c0.56-0.13,1.02,0.08,1.4,0.64c4.66,7.27,12.45,9.54,23.38,6.8
		c5.7-1.43,9.81-3.54,12.32-6.33c2.52-2.78,3.4-5.69,2.65-8.69c-0.76-3.02-2.33-5.21-4.69-6.57c-2.37-1.37-5.73-2.11-10.08-2.24
		l-17.9-0.55c-11.57-0.39-18.45-4.92-20.62-13.58c-1.33-5.34-0.15-10.25,3.55-14.76c3.7-4.51,9.36-7.72,17-9.64
		c7.63-1.91,14.22-1.81,19.73,0.28c5.52,2.1,9.6,5.85,12.25,11.25c0.31,0.74,0.08,1.21-0.69,1.41l-5.99,1.51
		c-0.57,0.14-1.04-0.09-1.42-0.69c-4.66-7.27-12-9.65-22.01-7.13c-5.28,1.32-9.13,3.37-11.55,6.14c-2.41,2.77-3.25,5.68-2.49,8.73
		c0.77,3.06,2.33,5.23,4.68,6.52c2.35,1.29,5.75,2.02,10.17,2.19l17.91,0.61c11.51,0.34,18.34,4.89,20.53,13.6
		c1.35,5.4,0.12,10.35-3.72,14.86c-3.83,4.5-9.81,7.78-17.94,9.82c-8.13,2.04-15.01,2.03-20.67-0.01c-2.83-1-5.45-2.53-7.9-4.57
		C903.8,1406.18,902.24,1403.85,901.59,1401.25"/>
	<path d="M1026.69,1380.39l-27.81-60.77c-0.26-0.59-0.11-1.02,0.45-1.32l20.54-9.41c9.28-4.25,18.02-4.86,26.21-1.89
		c8.19,2.99,14.51,9.34,18.95,19.05c4.45,9.72,5.14,18.64,2.06,26.79c-3.09,8.15-9.28,14.35-18.59,18.61l-20.54,9.41
		C1027.38,1381.13,1026.95,1380.97,1026.69,1380.39 M1032.26,1371.35l13.38-6.13c6.78-3.1,11.3-7.74,13.57-13.94
		c2.27-6.19,1.53-13.36-2.2-21.52c-3.73-8.16-8.68-13.4-14.83-15.74c-6.15-2.34-12.63-1.95-19.42,1.16l-13.41,6.13L1032.26,1371.35z
		"/>
	<path d="M1104.25,1342.36l-34.87-57.01c-0.35-0.57-0.26-1.03,0.3-1.36l40.6-24.83c0.56-0.33,0.99-0.22,1.35,0.36l2.55,4.17
		c0.34,0.58,0.25,1.03-0.29,1.37l-33.9,20.73l12.29,20.09l28-17.12c0.58-0.34,1.04-0.23,1.39,0.34l2.56,4.18
		c0.35,0.57,0.23,1.03-0.34,1.38l-27.99,17.13l12.82,20.96l33.88-20.74c0.55-0.33,1-0.22,1.32,0.32l2.58,4.21
		c0.34,0.55,0.23,0.99-0.31,1.32l-40.61,24.83C1105.03,1343.01,1104.59,1342.9,1104.25,1342.36"/>
	<path d="M1154.96,1290.22c-0.36-0.45-0.28-0.88,0.26-1.3l4.87-3.81c0.46-0.36,0.97-0.35,1.54,0.02c7.21,4.75,15.25,3.66,24.11-3.28
		c4.64-3.63,7.54-7.23,8.71-10.79c1.17-3.58,0.79-6.58-1.13-9.02c-1.91-2.45-4.22-3.82-6.95-4.1c-2.73-0.29-6.1,0.39-10.12,2.04
		l-16.58,6.75c-10.74,4.34-18.86,2.99-24.36-4.03c-3.39-4.33-4.3-9.31-2.75-14.93c1.55-5.63,5.43-10.86,11.62-15.71
		c6.21-4.84,12.25-7.43,18.14-7.76c5.89-0.33,11.15,1.44,15.76,5.31c0.59,0.56,0.57,1.07-0.06,1.57l-4.88,3.81
		c-0.46,0.36-0.97,0.34-1.56-0.05c-7.21-4.76-14.89-3.95-23.02,2.41c-4.28,3.35-6.97,6.79-8.06,10.3c-1.09,3.51-0.67,6.51,1.28,8.99
		c1.94,2.49,4.25,3.84,6.91,4.06c2.67,0.22,6.07-0.48,10.19-2.12l16.61-6.71c10.65-4.36,18.73-2.98,24.27,4.09
		c3.44,4.39,4.3,9.42,2.64,15.09c-1.68,5.67-5.81,11.08-12.41,16.26c-6.61,5.16-12.91,7.96-18.9,8.39c-2.99,0.22-6.02-0.1-9.08-0.97
		C1158.97,1293.84,1156.61,1292.34,1154.96,1290.22"/>
	<path d="M1230.14,1249.93l-45.65-48.83c-0.46-0.48-0.46-0.94,0.02-1.38l5.04-4.72c0.46-0.43,0.93-0.41,1.39,0.09l45.64,48.81
		c0.44,0.47,0.42,0.92-0.05,1.37l-5.04,4.71C1231.02,1250.41,1230.57,1250.4,1230.14,1249.93"/>
	<path d="M1226.95,1154.23c5.34-6.05,10.97-9.79,16.89-11.26c5.92-1.47,11.68-0.57,17.25,2.68c0.68,0.44,0.76,0.96,0.23,1.56
		l-4.1,4.64c-0.39,0.43-0.88,0.5-1.48,0.22c-8.46-3.8-16.35-1.57-23.65,6.7c-4.36,4.94-6.17,10.67-5.43,17.2
		c0.76,6.52,4.69,12.94,11.85,19.26c7.14,6.3,13.99,9.46,20.54,9.47c6.55-0.01,11.92-2.38,16.12-7.14
		c4.21-4.76,6.11-10.02,5.73-15.77c-0.38-5.75-3.02-10.78-7.9-15.11l-0.76-0.66l-13.28,15.03c-0.43,0.48-0.88,0.5-1.36,0.08
		l-3.7-3.27c-0.47-0.43-0.51-0.88-0.09-1.36l18.49-20.93c0.43-0.48,0.88-0.5,1.36-0.08l25.06,22.13c0.48,0.43,0.51,0.89,0.09,1.37
		l-3.59,4.06c-0.37,0.43-0.84,0.46-1.35,0.08l-7.33-5.12c0.4,1.24,0.66,2.86,0.78,4.84c0.13,1.98,0.05,3.89-0.22,5.7
		c-0.27,1.8-0.96,3.96-2.09,6.47c-1.13,2.5-2.66,4.86-4.62,7.06c-6.05,6.86-13.41,10.39-22.09,10.6
		c-8.68,0.21-17.21-3.38-25.6-10.79c-8.39-7.42-13-15.45-13.81-24.13C1218.07,1169.07,1220.76,1161.23,1226.95,1154.23"/>
	<path d="M1318.55,1151.76l-55.58-37.12c-0.56-0.37-0.65-0.83-0.3-1.36l3.84-5.75c1.07-1.63,2.8-2.43,5.18-2.42l65.12-0.23
		l-46.55-31.11c-0.57-0.37-0.66-0.82-0.31-1.35l3.84-5.75c0.35-0.53,0.82-0.61,1.38-0.23l55.57,37.12c0.52,0.35,0.62,0.8,0.26,1.33
		l-3.83,5.74c-1.09,1.62-2.81,2.43-5.15,2.45l-65.16,0.21l46.59,31.13c0.54,0.35,0.63,0.8,0.26,1.33l-3.84,5.74
		C1319.52,1152.02,1319.08,1152.12,1318.55,1151.76"/>
	<path d="M1367.47,1073.89l-59.78-29.89c-0.6-0.3-0.76-0.74-0.47-1.31l21.29-42.56c0.29-0.57,0.73-0.72,1.33-0.41l4.38,2.19
		c0.59,0.3,0.75,0.73,0.46,1.3l-17.76,35.53l21.07,10.54l14.68-29.35c0.3-0.61,0.74-0.76,1.34-0.45l4.38,2.18
		c0.6,0.31,0.76,0.75,0.45,1.36l-14.68,29.35l21.97,10.99l17.77-35.54c0.29-0.57,0.72-0.71,1.29-0.43l4.41,2.21
		c0.58,0.29,0.73,0.72,0.44,1.28l-21.29,42.57C1368.47,1074.03,1368.04,1074.18,1367.47,1073.89"/>
	<path d="M1400.53,1003.69l-62.92-22.54c-0.6-0.22-0.82-0.63-0.63-1.25l9.29-25.92c2.72-7.6,6.58-12.87,11.58-15.84
		c5.02-2.96,10.66-3.32,16.95-1.06c4.51,1.62,7.83,4.64,9.96,9.05c2.13,4.41,2.6,9.7,1.44,15.88c1.04-1.56,2.35-2.85,3.93-3.84
		s2.88-1.66,3.91-1.99c1.01-0.33,2.55-0.73,4.62-1.17l20.87-5.06c0.3-0.06,0.59-0.05,0.84,0.05c0.25,0.08,0.25,0.47,0.03,1.12
		l-2.73,7.59c-0.17,0.48-0.63,0.83-1.39,1.03l-21.1,4.98c-5.7,1.29-9.55,4.79-11.59,10.47l-4.16,11.56l24.09,8.63
		c0.6,0.21,0.8,0.62,0.58,1.23l-2.33,6.5C1401.53,1003.72,1401.13,1003.91,1400.53,1003.69 M1372.98,984.44l6.64-18.51
		c1.7-4.76,1.91-8.99,0.61-12.67c-1.29-3.69-4.1-6.31-8.42-7.86c-4.32-1.55-8.15-1.3-11.48,0.76c-3.34,2.05-5.85,5.44-7.55,10.16
		l-6.63,18.52L1372.98,984.44z"/>
	<rect x="520.8" y="1061.34" width="490.31" height="0.06"/>
	<polygon points="1019.1,1069.52 512.79,1069.3 512.8,1053.3 520.8,1053.24 1019.11,1053.45 	"/>
</g>
</svg>
