<?xml version="1.0" encoding="utf-8"?>
<!-- Generator: Adobe Illustrator 23.1.1, SVG Export Plug-In . SVG Version: 6.00 Build 0)  -->
<svg version="1.1" id="Capa_1" xmlns="http://www.w3.org/2000/svg" xmlns:xlink="http://www.w3.org/1999/xlink" x="0px" y="0px"
	 viewBox="0 0 1500 592.78" style="enable-background:new 0 0 1500 592.78;" xml:space="preserve">
<path d="M419.73,286.32c0,0.62-0.15,1.38-0.45,2.29l-239.74-0.1l-0.02,34.38c-0.02,47.06,4.4,81.75,13.25,104.06
	c13.74,34.54,39.7,51.81,77.9,51.83c17.11,0.01,34.07-2.89,50.89-8.68c21.7-7.63,32.55-18.16,32.56-31.62
	c0.01-9.17-6.48-18.71-19.47-28.65c-12.99-9.93-19.48-21.17-19.47-33.7c0.01-11.92,4.13-21.69,12.4-29.34
	c7.63-6.72,16.65-10.08,27.04-10.07c11.92,0.01,21.84,4.13,29.79,12.38c8.86,9.18,13.28,22.01,13.28,38.51
	c-0.02,28.73-13.31,52.25-39.91,70.57c-24.45,16.8-53.94,25.19-88.47,25.17c-45.54-0.02-84.04-14.85-115.5-44.51
	c-36.96-34.24-55.42-82.08-55.4-143.49c0.02-51.34,16.61-95.49,49.78-132.46c33.17-36.95,71.77-55.43,115.77-55.41
	c51.03,0.02,89.98,16.09,116.86,48.18C406.78,186.54,419.76,230.09,419.73,286.32 M343.64,283.99c0.01-18.94-1.06-42.01-3.18-69.22
	c-2.73-36.36-7.77-60.97-15.09-73.81c-10.69-19.25-31.16-28.89-61.42-28.9c-30.55-0.02-51.95,9.6-64.18,28.85
	c-8.88,14.06-14.69,38.66-17.45,73.79c-1.23,15.6-2.16,38.67-2.78,69.22L343.64,283.99z"/>
<polyline points="763.21,108.07 608.5,496.34 603.91,496.33 458.77,116.73 387.72,116.7 387.72,112.12 605.9,112.21 605.9,116.79 
	534.86,116.76 642,395.97 758.17,108.07 "/>
<path d="M1114.3,474.59l-139.81-0.06l0.11-274.12c0.01-20.78-5.65-36.97-16.95-48.59c-10.38-10.39-23.52-15.6-39.41-15.6
	c-29.04-0.01-51.04,12.97-66.02,38.93c-10.1,18.04-15.14,36.67-15.15,55.92l-0.1,238.82l57.3,0.03v4.58l-197.11-0.08l0.01-4.58
	l66.46,0.03l0.15-357.54l-66.46-0.03v-4.58l139.81,0.06l-0.04,94.89c6.12-29.94,22.32-54.53,48.62-73.78
	c23.84-17.1,48.75-25.65,74.73-25.64c24.75,0.01,45.06,7.2,60.96,21.57c17.71,16.21,26.57,38.52,26.55,66.93l-0.11,278.24
	l66.47,0.02V474.59z"/>
<path d="M1362.77,399.06c-0.01,25.37-9.35,45.38-27.99,60.04c-17.12,13.44-38.36,20.15-63.71,20.14
	c-28.12-0.01-52.26-8.11-72.42-24.33c-22.61-18.04-33.9-42.03-33.89-71.98l0.08-187.94l-66.46-0.03v-4.58l24.3,0.01
	c33,0.02,59.82-10.74,80.45-32.29c20.64-21.53,30.97-49.11,30.99-82.72l4.12,0.01l-0.05,115.05l112.3,0.05v4.58l-112.31-0.05
	l-0.1,242.95c-0.01,11.92,3.81,21.02,11.44,27.28c7.64,6.27,16.8,9.4,27.5,9.41c10.39,0,19.48-2.9,27.28-8.7
	c7.79-5.8,11.69-13.59,11.69-23.37c0.01-7.94-3.5-13.29-10.53-16.05c-16.81-6.11-25.21-18.64-25.2-37.59
	c0.01-12.53,4.13-22.45,12.38-29.79c7.34-6.71,16.35-10.08,27.05-10.07c13.13,0.01,23.61,4.9,31.4,14.68
	C1358.88,373.54,1362.77,385.31,1362.77,399.06"/>
<path d="M1464.96,438.52c-0.01,11.31-3.98,20.94-11.93,28.87c-7.95,7.95-17.58,11.91-28.89,11.91
	c-11.31-0.01-20.93-3.99-28.87-11.93c-7.95-7.94-11.91-17.57-11.91-28.88c0.01-11.3,3.97-20.93,11.93-28.87
	c7.94-7.94,17.57-11.91,28.89-11.91c11.3,0.01,20.93,3.99,28.87,11.93C1461,417.59,1464.97,427.22,1464.96,438.52"/>
</svg>
